<?xml version="1.0" encoding="utf-8"?>
<!-- Generator: Adobe Illustrator 23.0.1, SVG Export Plug-In . SVG Version: 6.00 Build 0)  -->
<svg version="1.1" id="Warstwa_1" xmlns="http://www.w3.org/2000/svg" xmlns:xlink="http://www.w3.org/1999/xlink" x="0px" y="0px"
	 viewBox="0 0 46 116" style="enable-background:new 0 0 46 116;" xml:space="preserve">
<style type="text/css">
	.st1{fill:none;stroke:#010101;stroke-width:0.25;stroke-miterlimit:10;}
	.st3{font-size:36px;}
</style>
<path class="st0" d="M19.66,16.59l1.09-1.89v26.23C11.74,42.03,5.44,50.08,5.44,58c0,11.58,9.81,17.92,17.56,17.72v0.92
	C17.25,77.22,4.55,72.14,4.55,58c0-9.43,6.67-16.11,15.15-17.96L19.66,16.59z"/>
<path class="st0" d="M26.07,99.99l-1.09,1.89V75.65c9.01-1.1,15.31-9.15,15.31-17.07c0-11.58-9.81-17.92-17.56-17.72v-0.92
	c5.75-0.58,18.45,4.51,18.45,18.65c0,8.98-6.85,16.69-15.15,17.96L26.07,99.99z"/>
<path class="st1" d="M23,75.68c-9.63,0-17.43-7.81-17.43-17.43c0-8.86,6.61-16.19,15.17-17.29c0.02,0,0.02,0,0.02,0"/>
<path class="st1" d="M22.73,40.86c0.07,0,0.18,0,0.27,0c9.63,0,17.43,7.77,17.43,17.4c0,8.93-6.72,16.3-15.38,17.31
	c-0.01,0-0.08,0-0.08,0"/>
<text transform="matrix(1 0 0 1 9.6584 71.1043)" class="st0 st2 st3">V</text>
<path class="st4" d="M5.57-0.17"/>
<path class="st1" d="M22.66,39.97c0.07,0,0.19,0,0.28,0c10.12,0,18.32,8.16,18.32,18.28c0,9.39-7.06,17.13-16.16,18.2
	c-0.01,0-0.08,0-0.08,0"/>
<path class="st1" d="M23,76.69c-10.2,0-18.48-8.27-18.48-18.48c0-9.39,7.01-17.15,16.08-18.32c0.02,0,0.02,0,0.02,0"/>
</svg>
