<?xml version="1.0" encoding="utf-8"?>
<!-- Generator: Adobe Illustrator 23.0.1, SVG Export Plug-In . SVG Version: 6.00 Build 0)  -->
<svg version="1.1" id="Warstwa_1" xmlns="http://www.w3.org/2000/svg" xmlns:xlink="http://www.w3.org/1999/xlink" x="0px" y="0px"
	 viewBox="0 0 1080 1920" style="enable-background:new 0 0 1080 1920;" xml:space="preserve">
<style type="text/css">
	.st0{fill:inherit;}
	.st1{fill:none;stroke-width:0.25;stroke-miterlimit:10;}
	.st2{stroke-width:0.25;stroke-miterlimit:10;}
</style>
<path class="st0" d="M786.02,617.39c92.47,72.53,180.59,180.69,183.9,357.56c4.23,225.66-174.83,362.09-253.57,392l0.86,470.55
	l-35.74-26.52v-461.4c117.83-43.71,259.33-173.14,259.33-374.8c0-135.53-75.52-257.13-143.26-308.18l-30.63-0.45l-37.36,98.6
	l-33-12.73l77.03-200.38h37.56"/>
<path class="st1" d="M537.44,538.3"/>
<path class="st1" d="M530.88,538.4"/>
<path class="st2" d="M455.74,551.51C328.91,570.66,110,701.01,110,975.92c0,174.37,111.53,368.77,339.55,419.49l-27.35,71.18h37.74
	l76.4-199.82H499l-33.12,85.18l-61.95,0.2c-187.31-82.74-265.52-235.94-265.52-386.09c0-252.38,226.53-383.91,352.21-390.55v-466.5
	L454.88,82.5L455.74,551.51z"/>
<polygon class="st2" points="405.18,1510.31 394.75,1600.38 443.18,1510.31 452.55,1485.88 414.81,1485.88 "/>
<polygon class="st2" points="547.62,1238.05 718.53,793.08 685.78,780.35 537.26,1167.2 395.94,780.35 342.76,780.35 
	510.21,1238.05 "/>
<polygon class="st0" points="790.61,507.36 828.03,507.36 818.86,531.67 781.24,531.67 "/>
</svg>
