<?xml version="1.0" encoding="utf-8"?>
<!-- Generator: Adobe Illustrator 23.0.1, SVG Export Plug-In . SVG Version: 6.00 Build 0)  -->
<svg version="1.1" id="Warstwa_1" xmlns="http://www.w3.org/2000/svg" xmlns:xlink="http://www.w3.org/1999/xlink" x="0px" y="0px"
	 viewBox="0 0 673.8 567.7" style="enable-background:new 0 0 673.8 567.7;" xml:space="preserve">
<style type="text/css">
	.st0{clip-path:url(#SVGID_2_);fill-rule:evenodd;clip-rule:evenodd;}
	
		.st1{clip-path:url(#SVGID_2_);fill:none;stroke:#FFFFFF;stroke-width:0;stroke-linecap:round;stroke-linejoin:round;stroke-miterlimit:10;}
	
		.st2{clip-path:url(#SVGID_2_);fill:none;stroke:#000000;stroke-width:0.5249;stroke-linecap:round;stroke-linejoin:round;stroke-miterlimit:10;}
</style>
<g>
	<defs>
		<polyline id="SVGID_1_" points="0,0.3 673.8,0.3 673.8,568 0,568 0,0.3 		"/>
	</defs>
	<clipPath id="SVGID_2_">
		<use xlink:href="#SVGID_1_"  style="overflow:visible;"/>
	</clipPath>
	<path class="st0" d="M65.5,393.1l-8.1-27.3l-16,23.6L65.5,393.1 M62.1,358.9l2.2,10.7l24.4-18.3l-31.5-16.6l4.1,20.3l-14.8-13.6
		l-8.5,27.2L62.1,358.9 M0,0.3l673.8,110.2L161.5,459.2l-48.3-33.7l4.9,62.9L0,568V98.6l47.9,46.5l43.4-80.6L0,81.8V0.3"/>
	<line class="st1" x1="679.1" y1="568" x2="0" y2="568"/>
	<line class="st1" x1="0" y1="568" x2="0" y2="-5"/>
	<line class="st2" x1="64.5" y1="358" x2="46.5" y2="341.5"/>
	<line class="st2" x1="46.5" y1="341.5" x2="38.1" y2="368.7"/>
	<line class="st2" x1="38.1" y1="368.7" x2="64.5" y2="358"/>
	<line class="st1" x1="679.1" y1="-5" x2="-5.3" y2="-5"/>
	<line class="st1" x1="-5.3" y1="-5" x2="-5.3" y2="573.2"/>
</g>
</svg>
